%TF.GenerationSoftware,KiCad,Pcbnew,9.0.7*%
%TF.CreationDate,2026-03-24T17:24:52-07:00*%
%TF.ProjectId,Untitled,556e7469-746c-4656-942e-6b696361645f,rev?*%
%TF.SameCoordinates,Original*%
%TF.FileFunction,Soldermask,Bot*%
%TF.FilePolarity,Negative*%
%FSLAX46Y46*%
G04 Gerber Fmt 4.6, Leading zero omitted, Abs format (unit mm)*
G04 Created by KiCad (PCBNEW 9.0.7) date 2026-03-24 17:24:52*
%MOMM*%
%LPD*%
G01*
G04 APERTURE LIST*
%ADD10C,1.400000*%
%ADD11C,1.500000*%
%ADD12R,1.500000X1.500000*%
%ADD13C,1.600000*%
%ADD14R,1.800000X1.800000*%
%ADD15C,1.800000*%
%ADD16R,1.700000X1.700000*%
%ADD17C,1.700000*%
%ADD18C,2.000000*%
G04 APERTURE END LIST*
D10*
%TO.C,R8*%
X86380000Y-92500000D03*
X94000000Y-92500000D03*
%TD*%
%TO.C,R3*%
X136880000Y-92000000D03*
X144500000Y-92000000D03*
%TD*%
D11*
%TO.C,Q1*%
X118500000Y-81500000D03*
X115960000Y-81500000D03*
D12*
X113420000Y-81500000D03*
%TD*%
D13*
%TO.C,C1*%
X113000000Y-65500000D03*
X118000000Y-65500000D03*
%TD*%
D10*
%TO.C,R1*%
X107500000Y-76620000D03*
X107500000Y-69000000D03*
%TD*%
D14*
%TO.C,D1*%
X114460000Y-73000000D03*
D15*
X117000000Y-73000000D03*
%TD*%
D10*
%TO.C,R4*%
X144500000Y-107000000D03*
X136880000Y-107000000D03*
%TD*%
%TO.C,R7*%
X86380000Y-107000000D03*
X94000000Y-107000000D03*
%TD*%
%TO.C,R5*%
X108500000Y-129120000D03*
X108500000Y-121500000D03*
%TD*%
D13*
%TO.C,C4*%
X82500000Y-102000000D03*
X82500000Y-97000000D03*
%TD*%
D10*
%TO.C,R6*%
X123500000Y-129120000D03*
X123500000Y-121500000D03*
%TD*%
D16*
%TO.C,J1*%
X114460000Y-103500000D03*
D17*
X117000000Y-103500000D03*
%TD*%
D11*
%TO.C,Q4*%
X97450000Y-102080000D03*
X97450000Y-99540000D03*
D12*
X97450000Y-97000000D03*
%TD*%
D14*
%TO.C,D4*%
X88960000Y-99500000D03*
D15*
X91500000Y-99500000D03*
%TD*%
D18*
%TO.C,SW1*%
X113000000Y-97500000D03*
X106500000Y-97500000D03*
X113000000Y-93000000D03*
X106500000Y-93000000D03*
%TD*%
D10*
%TO.C,R2*%
X124000000Y-76620000D03*
X124000000Y-69000000D03*
%TD*%
D11*
%TO.C,Q2*%
X132000000Y-102080000D03*
X132000000Y-99540000D03*
D12*
X132000000Y-97000000D03*
%TD*%
D13*
%TO.C,C2*%
X113500000Y-133000000D03*
X118500000Y-133000000D03*
%TD*%
D18*
%TO.C,SW2*%
X125000000Y-97500000D03*
X118500000Y-97500000D03*
X125000000Y-93000000D03*
X118500000Y-93000000D03*
%TD*%
D11*
%TO.C,Q3*%
X118580000Y-117000000D03*
X116040000Y-117000000D03*
D12*
X113500000Y-117000000D03*
%TD*%
D13*
%TO.C,C3*%
X148500000Y-97500000D03*
X148500000Y-102500000D03*
%TD*%
D15*
%TO.C,D2*%
X142040000Y-99500000D03*
D14*
X139500000Y-99500000D03*
%TD*%
%TO.C,D3*%
X114725000Y-125000000D03*
D15*
X117265000Y-125000000D03*
%TD*%
M02*
