%TF.GenerationSoftware,KiCad,Pcbnew,9.0.7*%
%TF.CreationDate,2026-03-24T17:24:52-07:00*%
%TF.ProjectId,Untitled,556e7469-746c-4656-942e-6b696361645f,rev?*%
%TF.SameCoordinates,Original*%
%TF.FileFunction,Legend,Top*%
%TF.FilePolarity,Positive*%
%FSLAX46Y46*%
G04 Gerber Fmt 4.6, Leading zero omitted, Abs format (unit mm)*
G04 Created by KiCad (PCBNEW 9.0.7) date 2026-03-24 17:24:52*
%MOMM*%
%LPD*%
G01*
G04 APERTURE LIST*
%ADD10C,0.100000*%
%ADD11C,0.150000*%
%ADD12C,0.120000*%
G04 APERTURE END LIST*
D10*
X105500000Y-64000000D02*
X109000000Y-66500000D01*
X126500000Y-65000000D02*
X122500000Y-68000000D01*
X123500000Y-81500000D02*
X125500000Y-83500000D01*
X111000000Y-81000000D02*
X107500000Y-84000000D01*
X105010000Y-114000000D02*
X108510000Y-116500000D01*
X126010000Y-115000000D02*
X122010000Y-118000000D01*
X123010000Y-131500000D02*
X125010000Y-133500000D01*
X110510000Y-131000000D02*
X107010000Y-134000000D01*
X98000000Y-91500000D02*
X100000000Y-89500000D01*
X81500000Y-88500000D02*
X84500000Y-92500000D01*
X80500000Y-109500000D02*
X83000000Y-106000000D01*
X97500000Y-104000000D02*
X100500000Y-107500000D01*
X130500000Y-110500000D02*
X133000000Y-107000000D01*
X131500000Y-89500000D02*
X134500000Y-93500000D01*
X148000000Y-92500000D02*
X150000000Y-90500000D01*
X147500000Y-105000000D02*
X150500000Y-108500000D01*
X126999999Y-104000000D02*
X124932719Y-103632737D01*
X124932719Y-103632738D02*
G75*
G02*
X106000001Y-105022680I-9992311J6469141D01*
G01*
X104454639Y-105022680D02*
X106000000Y-105022680D01*
X127000000Y-104000000D02*
G75*
G02*
X104454639Y-105022680I-11500000J4500000D01*
G01*
D11*
X90023333Y-91034819D02*
X89690000Y-90558628D01*
X89451905Y-91034819D02*
X89451905Y-90034819D01*
X89451905Y-90034819D02*
X89832857Y-90034819D01*
X89832857Y-90034819D02*
X89928095Y-90082438D01*
X89928095Y-90082438D02*
X89975714Y-90130057D01*
X89975714Y-90130057D02*
X90023333Y-90225295D01*
X90023333Y-90225295D02*
X90023333Y-90368152D01*
X90023333Y-90368152D02*
X89975714Y-90463390D01*
X89975714Y-90463390D02*
X89928095Y-90511009D01*
X89928095Y-90511009D02*
X89832857Y-90558628D01*
X89832857Y-90558628D02*
X89451905Y-90558628D01*
X90594762Y-90463390D02*
X90499524Y-90415771D01*
X90499524Y-90415771D02*
X90451905Y-90368152D01*
X90451905Y-90368152D02*
X90404286Y-90272914D01*
X90404286Y-90272914D02*
X90404286Y-90225295D01*
X90404286Y-90225295D02*
X90451905Y-90130057D01*
X90451905Y-90130057D02*
X90499524Y-90082438D01*
X90499524Y-90082438D02*
X90594762Y-90034819D01*
X90594762Y-90034819D02*
X90785238Y-90034819D01*
X90785238Y-90034819D02*
X90880476Y-90082438D01*
X90880476Y-90082438D02*
X90928095Y-90130057D01*
X90928095Y-90130057D02*
X90975714Y-90225295D01*
X90975714Y-90225295D02*
X90975714Y-90272914D01*
X90975714Y-90272914D02*
X90928095Y-90368152D01*
X90928095Y-90368152D02*
X90880476Y-90415771D01*
X90880476Y-90415771D02*
X90785238Y-90463390D01*
X90785238Y-90463390D02*
X90594762Y-90463390D01*
X90594762Y-90463390D02*
X90499524Y-90511009D01*
X90499524Y-90511009D02*
X90451905Y-90558628D01*
X90451905Y-90558628D02*
X90404286Y-90653866D01*
X90404286Y-90653866D02*
X90404286Y-90844342D01*
X90404286Y-90844342D02*
X90451905Y-90939580D01*
X90451905Y-90939580D02*
X90499524Y-90987200D01*
X90499524Y-90987200D02*
X90594762Y-91034819D01*
X90594762Y-91034819D02*
X90785238Y-91034819D01*
X90785238Y-91034819D02*
X90880476Y-90987200D01*
X90880476Y-90987200D02*
X90928095Y-90939580D01*
X90928095Y-90939580D02*
X90975714Y-90844342D01*
X90975714Y-90844342D02*
X90975714Y-90653866D01*
X90975714Y-90653866D02*
X90928095Y-90558628D01*
X90928095Y-90558628D02*
X90880476Y-90511009D01*
X90880476Y-90511009D02*
X90785238Y-90463390D01*
X140523333Y-90534819D02*
X140190000Y-90058628D01*
X139951905Y-90534819D02*
X139951905Y-89534819D01*
X139951905Y-89534819D02*
X140332857Y-89534819D01*
X140332857Y-89534819D02*
X140428095Y-89582438D01*
X140428095Y-89582438D02*
X140475714Y-89630057D01*
X140475714Y-89630057D02*
X140523333Y-89725295D01*
X140523333Y-89725295D02*
X140523333Y-89868152D01*
X140523333Y-89868152D02*
X140475714Y-89963390D01*
X140475714Y-89963390D02*
X140428095Y-90011009D01*
X140428095Y-90011009D02*
X140332857Y-90058628D01*
X140332857Y-90058628D02*
X139951905Y-90058628D01*
X140856667Y-89534819D02*
X141475714Y-89534819D01*
X141475714Y-89534819D02*
X141142381Y-89915771D01*
X141142381Y-89915771D02*
X141285238Y-89915771D01*
X141285238Y-89915771D02*
X141380476Y-89963390D01*
X141380476Y-89963390D02*
X141428095Y-90011009D01*
X141428095Y-90011009D02*
X141475714Y-90106247D01*
X141475714Y-90106247D02*
X141475714Y-90344342D01*
X141475714Y-90344342D02*
X141428095Y-90439580D01*
X141428095Y-90439580D02*
X141380476Y-90487200D01*
X141380476Y-90487200D02*
X141285238Y-90534819D01*
X141285238Y-90534819D02*
X140999524Y-90534819D01*
X140999524Y-90534819D02*
X140904286Y-90487200D01*
X140904286Y-90487200D02*
X140856667Y-90439580D01*
X115864761Y-78490057D02*
X115769523Y-78442438D01*
X115769523Y-78442438D02*
X115674285Y-78347200D01*
X115674285Y-78347200D02*
X115531428Y-78204342D01*
X115531428Y-78204342D02*
X115436190Y-78156723D01*
X115436190Y-78156723D02*
X115340952Y-78156723D01*
X115388571Y-78394819D02*
X115293333Y-78347200D01*
X115293333Y-78347200D02*
X115198095Y-78251961D01*
X115198095Y-78251961D02*
X115150476Y-78061485D01*
X115150476Y-78061485D02*
X115150476Y-77728152D01*
X115150476Y-77728152D02*
X115198095Y-77537676D01*
X115198095Y-77537676D02*
X115293333Y-77442438D01*
X115293333Y-77442438D02*
X115388571Y-77394819D01*
X115388571Y-77394819D02*
X115579047Y-77394819D01*
X115579047Y-77394819D02*
X115674285Y-77442438D01*
X115674285Y-77442438D02*
X115769523Y-77537676D01*
X115769523Y-77537676D02*
X115817142Y-77728152D01*
X115817142Y-77728152D02*
X115817142Y-78061485D01*
X115817142Y-78061485D02*
X115769523Y-78251961D01*
X115769523Y-78251961D02*
X115674285Y-78347200D01*
X115674285Y-78347200D02*
X115579047Y-78394819D01*
X115579047Y-78394819D02*
X115388571Y-78394819D01*
X116769523Y-78394819D02*
X116198095Y-78394819D01*
X116483809Y-78394819D02*
X116483809Y-77394819D01*
X116483809Y-77394819D02*
X116388571Y-77537676D01*
X116388571Y-77537676D02*
X116293333Y-77632914D01*
X116293333Y-77632914D02*
X116198095Y-77680533D01*
X115333333Y-63359580D02*
X115285714Y-63407200D01*
X115285714Y-63407200D02*
X115142857Y-63454819D01*
X115142857Y-63454819D02*
X115047619Y-63454819D01*
X115047619Y-63454819D02*
X114904762Y-63407200D01*
X114904762Y-63407200D02*
X114809524Y-63311961D01*
X114809524Y-63311961D02*
X114761905Y-63216723D01*
X114761905Y-63216723D02*
X114714286Y-63026247D01*
X114714286Y-63026247D02*
X114714286Y-62883390D01*
X114714286Y-62883390D02*
X114761905Y-62692914D01*
X114761905Y-62692914D02*
X114809524Y-62597676D01*
X114809524Y-62597676D02*
X114904762Y-62502438D01*
X114904762Y-62502438D02*
X115047619Y-62454819D01*
X115047619Y-62454819D02*
X115142857Y-62454819D01*
X115142857Y-62454819D02*
X115285714Y-62502438D01*
X115285714Y-62502438D02*
X115333333Y-62550057D01*
X116285714Y-63454819D02*
X115714286Y-63454819D01*
X116000000Y-63454819D02*
X116000000Y-62454819D01*
X116000000Y-62454819D02*
X115904762Y-62597676D01*
X115904762Y-62597676D02*
X115809524Y-62692914D01*
X115809524Y-62692914D02*
X115714286Y-62740533D01*
X106034819Y-72976666D02*
X105558628Y-73309999D01*
X106034819Y-73548094D02*
X105034819Y-73548094D01*
X105034819Y-73548094D02*
X105034819Y-73167142D01*
X105034819Y-73167142D02*
X105082438Y-73071904D01*
X105082438Y-73071904D02*
X105130057Y-73024285D01*
X105130057Y-73024285D02*
X105225295Y-72976666D01*
X105225295Y-72976666D02*
X105368152Y-72976666D01*
X105368152Y-72976666D02*
X105463390Y-73024285D01*
X105463390Y-73024285D02*
X105511009Y-73071904D01*
X105511009Y-73071904D02*
X105558628Y-73167142D01*
X105558628Y-73167142D02*
X105558628Y-73548094D01*
X106034819Y-72024285D02*
X106034819Y-72595713D01*
X106034819Y-72309999D02*
X105034819Y-72309999D01*
X105034819Y-72309999D02*
X105177676Y-72405237D01*
X105177676Y-72405237D02*
X105272914Y-72500475D01*
X105272914Y-72500475D02*
X105320533Y-72595713D01*
X114991905Y-69494819D02*
X114991905Y-68494819D01*
X114991905Y-68494819D02*
X115230000Y-68494819D01*
X115230000Y-68494819D02*
X115372857Y-68542438D01*
X115372857Y-68542438D02*
X115468095Y-68637676D01*
X115468095Y-68637676D02*
X115515714Y-68732914D01*
X115515714Y-68732914D02*
X115563333Y-68923390D01*
X115563333Y-68923390D02*
X115563333Y-69066247D01*
X115563333Y-69066247D02*
X115515714Y-69256723D01*
X115515714Y-69256723D02*
X115468095Y-69351961D01*
X115468095Y-69351961D02*
X115372857Y-69447200D01*
X115372857Y-69447200D02*
X115230000Y-69494819D01*
X115230000Y-69494819D02*
X114991905Y-69494819D01*
X116515714Y-69494819D02*
X115944286Y-69494819D01*
X116230000Y-69494819D02*
X116230000Y-68494819D01*
X116230000Y-68494819D02*
X116134762Y-68637676D01*
X116134762Y-68637676D02*
X116039524Y-68732914D01*
X116039524Y-68732914D02*
X115944286Y-68780533D01*
X140523333Y-105534819D02*
X140190000Y-105058628D01*
X139951905Y-105534819D02*
X139951905Y-104534819D01*
X139951905Y-104534819D02*
X140332857Y-104534819D01*
X140332857Y-104534819D02*
X140428095Y-104582438D01*
X140428095Y-104582438D02*
X140475714Y-104630057D01*
X140475714Y-104630057D02*
X140523333Y-104725295D01*
X140523333Y-104725295D02*
X140523333Y-104868152D01*
X140523333Y-104868152D02*
X140475714Y-104963390D01*
X140475714Y-104963390D02*
X140428095Y-105011009D01*
X140428095Y-105011009D02*
X140332857Y-105058628D01*
X140332857Y-105058628D02*
X139951905Y-105058628D01*
X141380476Y-104868152D02*
X141380476Y-105534819D01*
X141142381Y-104487200D02*
X140904286Y-105201485D01*
X140904286Y-105201485D02*
X141523333Y-105201485D01*
X90023333Y-105534819D02*
X89690000Y-105058628D01*
X89451905Y-105534819D02*
X89451905Y-104534819D01*
X89451905Y-104534819D02*
X89832857Y-104534819D01*
X89832857Y-104534819D02*
X89928095Y-104582438D01*
X89928095Y-104582438D02*
X89975714Y-104630057D01*
X89975714Y-104630057D02*
X90023333Y-104725295D01*
X90023333Y-104725295D02*
X90023333Y-104868152D01*
X90023333Y-104868152D02*
X89975714Y-104963390D01*
X89975714Y-104963390D02*
X89928095Y-105011009D01*
X89928095Y-105011009D02*
X89832857Y-105058628D01*
X89832857Y-105058628D02*
X89451905Y-105058628D01*
X90356667Y-104534819D02*
X91023333Y-104534819D01*
X91023333Y-104534819D02*
X90594762Y-105534819D01*
X107034819Y-125476666D02*
X106558628Y-125809999D01*
X107034819Y-126048094D02*
X106034819Y-126048094D01*
X106034819Y-126048094D02*
X106034819Y-125667142D01*
X106034819Y-125667142D02*
X106082438Y-125571904D01*
X106082438Y-125571904D02*
X106130057Y-125524285D01*
X106130057Y-125524285D02*
X106225295Y-125476666D01*
X106225295Y-125476666D02*
X106368152Y-125476666D01*
X106368152Y-125476666D02*
X106463390Y-125524285D01*
X106463390Y-125524285D02*
X106511009Y-125571904D01*
X106511009Y-125571904D02*
X106558628Y-125667142D01*
X106558628Y-125667142D02*
X106558628Y-126048094D01*
X106034819Y-124571904D02*
X106034819Y-125048094D01*
X106034819Y-125048094D02*
X106511009Y-125095713D01*
X106511009Y-125095713D02*
X106463390Y-125048094D01*
X106463390Y-125048094D02*
X106415771Y-124952856D01*
X106415771Y-124952856D02*
X106415771Y-124714761D01*
X106415771Y-124714761D02*
X106463390Y-124619523D01*
X106463390Y-124619523D02*
X106511009Y-124571904D01*
X106511009Y-124571904D02*
X106606247Y-124524285D01*
X106606247Y-124524285D02*
X106844342Y-124524285D01*
X106844342Y-124524285D02*
X106939580Y-124571904D01*
X106939580Y-124571904D02*
X106987200Y-124619523D01*
X106987200Y-124619523D02*
X107034819Y-124714761D01*
X107034819Y-124714761D02*
X107034819Y-124952856D01*
X107034819Y-124952856D02*
X106987200Y-125048094D01*
X106987200Y-125048094D02*
X106939580Y-125095713D01*
X80359580Y-99666666D02*
X80407200Y-99714285D01*
X80407200Y-99714285D02*
X80454819Y-99857142D01*
X80454819Y-99857142D02*
X80454819Y-99952380D01*
X80454819Y-99952380D02*
X80407200Y-100095237D01*
X80407200Y-100095237D02*
X80311961Y-100190475D01*
X80311961Y-100190475D02*
X80216723Y-100238094D01*
X80216723Y-100238094D02*
X80026247Y-100285713D01*
X80026247Y-100285713D02*
X79883390Y-100285713D01*
X79883390Y-100285713D02*
X79692914Y-100238094D01*
X79692914Y-100238094D02*
X79597676Y-100190475D01*
X79597676Y-100190475D02*
X79502438Y-100095237D01*
X79502438Y-100095237D02*
X79454819Y-99952380D01*
X79454819Y-99952380D02*
X79454819Y-99857142D01*
X79454819Y-99857142D02*
X79502438Y-99714285D01*
X79502438Y-99714285D02*
X79550057Y-99666666D01*
X79788152Y-98809523D02*
X80454819Y-98809523D01*
X79407200Y-99047618D02*
X80121485Y-99285713D01*
X80121485Y-99285713D02*
X80121485Y-98666666D01*
X122034819Y-125476666D02*
X121558628Y-125809999D01*
X122034819Y-126048094D02*
X121034819Y-126048094D01*
X121034819Y-126048094D02*
X121034819Y-125667142D01*
X121034819Y-125667142D02*
X121082438Y-125571904D01*
X121082438Y-125571904D02*
X121130057Y-125524285D01*
X121130057Y-125524285D02*
X121225295Y-125476666D01*
X121225295Y-125476666D02*
X121368152Y-125476666D01*
X121368152Y-125476666D02*
X121463390Y-125524285D01*
X121463390Y-125524285D02*
X121511009Y-125571904D01*
X121511009Y-125571904D02*
X121558628Y-125667142D01*
X121558628Y-125667142D02*
X121558628Y-126048094D01*
X121034819Y-124619523D02*
X121034819Y-124809999D01*
X121034819Y-124809999D02*
X121082438Y-124905237D01*
X121082438Y-124905237D02*
X121130057Y-124952856D01*
X121130057Y-124952856D02*
X121272914Y-125048094D01*
X121272914Y-125048094D02*
X121463390Y-125095713D01*
X121463390Y-125095713D02*
X121844342Y-125095713D01*
X121844342Y-125095713D02*
X121939580Y-125048094D01*
X121939580Y-125048094D02*
X121987200Y-125000475D01*
X121987200Y-125000475D02*
X122034819Y-124905237D01*
X122034819Y-124905237D02*
X122034819Y-124714761D01*
X122034819Y-124714761D02*
X121987200Y-124619523D01*
X121987200Y-124619523D02*
X121939580Y-124571904D01*
X121939580Y-124571904D02*
X121844342Y-124524285D01*
X121844342Y-124524285D02*
X121606247Y-124524285D01*
X121606247Y-124524285D02*
X121511009Y-124571904D01*
X121511009Y-124571904D02*
X121463390Y-124619523D01*
X121463390Y-124619523D02*
X121415771Y-124714761D01*
X121415771Y-124714761D02*
X121415771Y-124905237D01*
X121415771Y-124905237D02*
X121463390Y-125000475D01*
X121463390Y-125000475D02*
X121511009Y-125048094D01*
X121511009Y-125048094D02*
X121606247Y-125095713D01*
X111534819Y-103833333D02*
X112249104Y-103833333D01*
X112249104Y-103833333D02*
X112391961Y-103880952D01*
X112391961Y-103880952D02*
X112487200Y-103976190D01*
X112487200Y-103976190D02*
X112534819Y-104119047D01*
X112534819Y-104119047D02*
X112534819Y-104214285D01*
X112534819Y-102833333D02*
X112534819Y-103404761D01*
X112534819Y-103119047D02*
X111534819Y-103119047D01*
X111534819Y-103119047D02*
X111677676Y-103214285D01*
X111677676Y-103214285D02*
X111772914Y-103309523D01*
X111772914Y-103309523D02*
X111820533Y-103404761D01*
X101560057Y-99635238D02*
X101512438Y-99730476D01*
X101512438Y-99730476D02*
X101417200Y-99825714D01*
X101417200Y-99825714D02*
X101274342Y-99968571D01*
X101274342Y-99968571D02*
X101226723Y-100063809D01*
X101226723Y-100063809D02*
X101226723Y-100159047D01*
X101464819Y-100111428D02*
X101417200Y-100206666D01*
X101417200Y-100206666D02*
X101321961Y-100301904D01*
X101321961Y-100301904D02*
X101131485Y-100349523D01*
X101131485Y-100349523D02*
X100798152Y-100349523D01*
X100798152Y-100349523D02*
X100607676Y-100301904D01*
X100607676Y-100301904D02*
X100512438Y-100206666D01*
X100512438Y-100206666D02*
X100464819Y-100111428D01*
X100464819Y-100111428D02*
X100464819Y-99920952D01*
X100464819Y-99920952D02*
X100512438Y-99825714D01*
X100512438Y-99825714D02*
X100607676Y-99730476D01*
X100607676Y-99730476D02*
X100798152Y-99682857D01*
X100798152Y-99682857D02*
X101131485Y-99682857D01*
X101131485Y-99682857D02*
X101321961Y-99730476D01*
X101321961Y-99730476D02*
X101417200Y-99825714D01*
X101417200Y-99825714D02*
X101464819Y-99920952D01*
X101464819Y-99920952D02*
X101464819Y-100111428D01*
X100798152Y-98825714D02*
X101464819Y-98825714D01*
X100417200Y-99063809D02*
X101131485Y-99301904D01*
X101131485Y-99301904D02*
X101131485Y-98682857D01*
X89491905Y-95994819D02*
X89491905Y-94994819D01*
X89491905Y-94994819D02*
X89730000Y-94994819D01*
X89730000Y-94994819D02*
X89872857Y-95042438D01*
X89872857Y-95042438D02*
X89968095Y-95137676D01*
X89968095Y-95137676D02*
X90015714Y-95232914D01*
X90015714Y-95232914D02*
X90063333Y-95423390D01*
X90063333Y-95423390D02*
X90063333Y-95566247D01*
X90063333Y-95566247D02*
X90015714Y-95756723D01*
X90015714Y-95756723D02*
X89968095Y-95851961D01*
X89968095Y-95851961D02*
X89872857Y-95947200D01*
X89872857Y-95947200D02*
X89730000Y-95994819D01*
X89730000Y-95994819D02*
X89491905Y-95994819D01*
X90920476Y-95328152D02*
X90920476Y-95994819D01*
X90682381Y-94947200D02*
X90444286Y-95661485D01*
X90444286Y-95661485D02*
X91063333Y-95661485D01*
X108416667Y-91407200D02*
X108559524Y-91454819D01*
X108559524Y-91454819D02*
X108797619Y-91454819D01*
X108797619Y-91454819D02*
X108892857Y-91407200D01*
X108892857Y-91407200D02*
X108940476Y-91359580D01*
X108940476Y-91359580D02*
X108988095Y-91264342D01*
X108988095Y-91264342D02*
X108988095Y-91169104D01*
X108988095Y-91169104D02*
X108940476Y-91073866D01*
X108940476Y-91073866D02*
X108892857Y-91026247D01*
X108892857Y-91026247D02*
X108797619Y-90978628D01*
X108797619Y-90978628D02*
X108607143Y-90931009D01*
X108607143Y-90931009D02*
X108511905Y-90883390D01*
X108511905Y-90883390D02*
X108464286Y-90835771D01*
X108464286Y-90835771D02*
X108416667Y-90740533D01*
X108416667Y-90740533D02*
X108416667Y-90645295D01*
X108416667Y-90645295D02*
X108464286Y-90550057D01*
X108464286Y-90550057D02*
X108511905Y-90502438D01*
X108511905Y-90502438D02*
X108607143Y-90454819D01*
X108607143Y-90454819D02*
X108845238Y-90454819D01*
X108845238Y-90454819D02*
X108988095Y-90502438D01*
X109321429Y-90454819D02*
X109559524Y-91454819D01*
X109559524Y-91454819D02*
X109750000Y-90740533D01*
X109750000Y-90740533D02*
X109940476Y-91454819D01*
X109940476Y-91454819D02*
X110178572Y-90454819D01*
X111083333Y-91454819D02*
X110511905Y-91454819D01*
X110797619Y-91454819D02*
X110797619Y-90454819D01*
X110797619Y-90454819D02*
X110702381Y-90597676D01*
X110702381Y-90597676D02*
X110607143Y-90692914D01*
X110607143Y-90692914D02*
X110511905Y-90740533D01*
X122534819Y-72976666D02*
X122058628Y-73309999D01*
X122534819Y-73548094D02*
X121534819Y-73548094D01*
X121534819Y-73548094D02*
X121534819Y-73167142D01*
X121534819Y-73167142D02*
X121582438Y-73071904D01*
X121582438Y-73071904D02*
X121630057Y-73024285D01*
X121630057Y-73024285D02*
X121725295Y-72976666D01*
X121725295Y-72976666D02*
X121868152Y-72976666D01*
X121868152Y-72976666D02*
X121963390Y-73024285D01*
X121963390Y-73024285D02*
X122011009Y-73071904D01*
X122011009Y-73071904D02*
X122058628Y-73167142D01*
X122058628Y-73167142D02*
X122058628Y-73548094D01*
X121630057Y-72595713D02*
X121582438Y-72548094D01*
X121582438Y-72548094D02*
X121534819Y-72452856D01*
X121534819Y-72452856D02*
X121534819Y-72214761D01*
X121534819Y-72214761D02*
X121582438Y-72119523D01*
X121582438Y-72119523D02*
X121630057Y-72071904D01*
X121630057Y-72071904D02*
X121725295Y-72024285D01*
X121725295Y-72024285D02*
X121820533Y-72024285D01*
X121820533Y-72024285D02*
X121963390Y-72071904D01*
X121963390Y-72071904D02*
X122534819Y-72643332D01*
X122534819Y-72643332D02*
X122534819Y-72024285D01*
X136110057Y-99635238D02*
X136062438Y-99730476D01*
X136062438Y-99730476D02*
X135967200Y-99825714D01*
X135967200Y-99825714D02*
X135824342Y-99968571D01*
X135824342Y-99968571D02*
X135776723Y-100063809D01*
X135776723Y-100063809D02*
X135776723Y-100159047D01*
X136014819Y-100111428D02*
X135967200Y-100206666D01*
X135967200Y-100206666D02*
X135871961Y-100301904D01*
X135871961Y-100301904D02*
X135681485Y-100349523D01*
X135681485Y-100349523D02*
X135348152Y-100349523D01*
X135348152Y-100349523D02*
X135157676Y-100301904D01*
X135157676Y-100301904D02*
X135062438Y-100206666D01*
X135062438Y-100206666D02*
X135014819Y-100111428D01*
X135014819Y-100111428D02*
X135014819Y-99920952D01*
X135014819Y-99920952D02*
X135062438Y-99825714D01*
X135062438Y-99825714D02*
X135157676Y-99730476D01*
X135157676Y-99730476D02*
X135348152Y-99682857D01*
X135348152Y-99682857D02*
X135681485Y-99682857D01*
X135681485Y-99682857D02*
X135871961Y-99730476D01*
X135871961Y-99730476D02*
X135967200Y-99825714D01*
X135967200Y-99825714D02*
X136014819Y-99920952D01*
X136014819Y-99920952D02*
X136014819Y-100111428D01*
X135110057Y-99301904D02*
X135062438Y-99254285D01*
X135062438Y-99254285D02*
X135014819Y-99159047D01*
X135014819Y-99159047D02*
X135014819Y-98920952D01*
X135014819Y-98920952D02*
X135062438Y-98825714D01*
X135062438Y-98825714D02*
X135110057Y-98778095D01*
X135110057Y-98778095D02*
X135205295Y-98730476D01*
X135205295Y-98730476D02*
X135300533Y-98730476D01*
X135300533Y-98730476D02*
X135443390Y-98778095D01*
X135443390Y-98778095D02*
X136014819Y-99349523D01*
X136014819Y-99349523D02*
X136014819Y-98730476D01*
X115833333Y-130859580D02*
X115785714Y-130907200D01*
X115785714Y-130907200D02*
X115642857Y-130954819D01*
X115642857Y-130954819D02*
X115547619Y-130954819D01*
X115547619Y-130954819D02*
X115404762Y-130907200D01*
X115404762Y-130907200D02*
X115309524Y-130811961D01*
X115309524Y-130811961D02*
X115261905Y-130716723D01*
X115261905Y-130716723D02*
X115214286Y-130526247D01*
X115214286Y-130526247D02*
X115214286Y-130383390D01*
X115214286Y-130383390D02*
X115261905Y-130192914D01*
X115261905Y-130192914D02*
X115309524Y-130097676D01*
X115309524Y-130097676D02*
X115404762Y-130002438D01*
X115404762Y-130002438D02*
X115547619Y-129954819D01*
X115547619Y-129954819D02*
X115642857Y-129954819D01*
X115642857Y-129954819D02*
X115785714Y-130002438D01*
X115785714Y-130002438D02*
X115833333Y-130050057D01*
X116214286Y-130050057D02*
X116261905Y-130002438D01*
X116261905Y-130002438D02*
X116357143Y-129954819D01*
X116357143Y-129954819D02*
X116595238Y-129954819D01*
X116595238Y-129954819D02*
X116690476Y-130002438D01*
X116690476Y-130002438D02*
X116738095Y-130050057D01*
X116738095Y-130050057D02*
X116785714Y-130145295D01*
X116785714Y-130145295D02*
X116785714Y-130240533D01*
X116785714Y-130240533D02*
X116738095Y-130383390D01*
X116738095Y-130383390D02*
X116166667Y-130954819D01*
X116166667Y-130954819D02*
X116785714Y-130954819D01*
X120416667Y-91407200D02*
X120559524Y-91454819D01*
X120559524Y-91454819D02*
X120797619Y-91454819D01*
X120797619Y-91454819D02*
X120892857Y-91407200D01*
X120892857Y-91407200D02*
X120940476Y-91359580D01*
X120940476Y-91359580D02*
X120988095Y-91264342D01*
X120988095Y-91264342D02*
X120988095Y-91169104D01*
X120988095Y-91169104D02*
X120940476Y-91073866D01*
X120940476Y-91073866D02*
X120892857Y-91026247D01*
X120892857Y-91026247D02*
X120797619Y-90978628D01*
X120797619Y-90978628D02*
X120607143Y-90931009D01*
X120607143Y-90931009D02*
X120511905Y-90883390D01*
X120511905Y-90883390D02*
X120464286Y-90835771D01*
X120464286Y-90835771D02*
X120416667Y-90740533D01*
X120416667Y-90740533D02*
X120416667Y-90645295D01*
X120416667Y-90645295D02*
X120464286Y-90550057D01*
X120464286Y-90550057D02*
X120511905Y-90502438D01*
X120511905Y-90502438D02*
X120607143Y-90454819D01*
X120607143Y-90454819D02*
X120845238Y-90454819D01*
X120845238Y-90454819D02*
X120988095Y-90502438D01*
X121321429Y-90454819D02*
X121559524Y-91454819D01*
X121559524Y-91454819D02*
X121750000Y-90740533D01*
X121750000Y-90740533D02*
X121940476Y-91454819D01*
X121940476Y-91454819D02*
X122178572Y-90454819D01*
X122511905Y-90550057D02*
X122559524Y-90502438D01*
X122559524Y-90502438D02*
X122654762Y-90454819D01*
X122654762Y-90454819D02*
X122892857Y-90454819D01*
X122892857Y-90454819D02*
X122988095Y-90502438D01*
X122988095Y-90502438D02*
X123035714Y-90550057D01*
X123035714Y-90550057D02*
X123083333Y-90645295D01*
X123083333Y-90645295D02*
X123083333Y-90740533D01*
X123083333Y-90740533D02*
X123035714Y-90883390D01*
X123035714Y-90883390D02*
X122464286Y-91454819D01*
X122464286Y-91454819D02*
X123083333Y-91454819D01*
X115944761Y-113990057D02*
X115849523Y-113942438D01*
X115849523Y-113942438D02*
X115754285Y-113847200D01*
X115754285Y-113847200D02*
X115611428Y-113704342D01*
X115611428Y-113704342D02*
X115516190Y-113656723D01*
X115516190Y-113656723D02*
X115420952Y-113656723D01*
X115468571Y-113894819D02*
X115373333Y-113847200D01*
X115373333Y-113847200D02*
X115278095Y-113751961D01*
X115278095Y-113751961D02*
X115230476Y-113561485D01*
X115230476Y-113561485D02*
X115230476Y-113228152D01*
X115230476Y-113228152D02*
X115278095Y-113037676D01*
X115278095Y-113037676D02*
X115373333Y-112942438D01*
X115373333Y-112942438D02*
X115468571Y-112894819D01*
X115468571Y-112894819D02*
X115659047Y-112894819D01*
X115659047Y-112894819D02*
X115754285Y-112942438D01*
X115754285Y-112942438D02*
X115849523Y-113037676D01*
X115849523Y-113037676D02*
X115897142Y-113228152D01*
X115897142Y-113228152D02*
X115897142Y-113561485D01*
X115897142Y-113561485D02*
X115849523Y-113751961D01*
X115849523Y-113751961D02*
X115754285Y-113847200D01*
X115754285Y-113847200D02*
X115659047Y-113894819D01*
X115659047Y-113894819D02*
X115468571Y-113894819D01*
X116230476Y-112894819D02*
X116849523Y-112894819D01*
X116849523Y-112894819D02*
X116516190Y-113275771D01*
X116516190Y-113275771D02*
X116659047Y-113275771D01*
X116659047Y-113275771D02*
X116754285Y-113323390D01*
X116754285Y-113323390D02*
X116801904Y-113371009D01*
X116801904Y-113371009D02*
X116849523Y-113466247D01*
X116849523Y-113466247D02*
X116849523Y-113704342D01*
X116849523Y-113704342D02*
X116801904Y-113799580D01*
X116801904Y-113799580D02*
X116754285Y-113847200D01*
X116754285Y-113847200D02*
X116659047Y-113894819D01*
X116659047Y-113894819D02*
X116373333Y-113894819D01*
X116373333Y-113894819D02*
X116278095Y-113847200D01*
X116278095Y-113847200D02*
X116230476Y-113799580D01*
X151359580Y-100166666D02*
X151407200Y-100214285D01*
X151407200Y-100214285D02*
X151454819Y-100357142D01*
X151454819Y-100357142D02*
X151454819Y-100452380D01*
X151454819Y-100452380D02*
X151407200Y-100595237D01*
X151407200Y-100595237D02*
X151311961Y-100690475D01*
X151311961Y-100690475D02*
X151216723Y-100738094D01*
X151216723Y-100738094D02*
X151026247Y-100785713D01*
X151026247Y-100785713D02*
X150883390Y-100785713D01*
X150883390Y-100785713D02*
X150692914Y-100738094D01*
X150692914Y-100738094D02*
X150597676Y-100690475D01*
X150597676Y-100690475D02*
X150502438Y-100595237D01*
X150502438Y-100595237D02*
X150454819Y-100452380D01*
X150454819Y-100452380D02*
X150454819Y-100357142D01*
X150454819Y-100357142D02*
X150502438Y-100214285D01*
X150502438Y-100214285D02*
X150550057Y-100166666D01*
X150454819Y-99833332D02*
X150454819Y-99214285D01*
X150454819Y-99214285D02*
X150835771Y-99547618D01*
X150835771Y-99547618D02*
X150835771Y-99404761D01*
X150835771Y-99404761D02*
X150883390Y-99309523D01*
X150883390Y-99309523D02*
X150931009Y-99261904D01*
X150931009Y-99261904D02*
X151026247Y-99214285D01*
X151026247Y-99214285D02*
X151264342Y-99214285D01*
X151264342Y-99214285D02*
X151359580Y-99261904D01*
X151359580Y-99261904D02*
X151407200Y-99309523D01*
X151407200Y-99309523D02*
X151454819Y-99404761D01*
X151454819Y-99404761D02*
X151454819Y-99690475D01*
X151454819Y-99690475D02*
X151407200Y-99785713D01*
X151407200Y-99785713D02*
X151359580Y-99833332D01*
X140031905Y-95994819D02*
X140031905Y-94994819D01*
X140031905Y-94994819D02*
X140270000Y-94994819D01*
X140270000Y-94994819D02*
X140412857Y-95042438D01*
X140412857Y-95042438D02*
X140508095Y-95137676D01*
X140508095Y-95137676D02*
X140555714Y-95232914D01*
X140555714Y-95232914D02*
X140603333Y-95423390D01*
X140603333Y-95423390D02*
X140603333Y-95566247D01*
X140603333Y-95566247D02*
X140555714Y-95756723D01*
X140555714Y-95756723D02*
X140508095Y-95851961D01*
X140508095Y-95851961D02*
X140412857Y-95947200D01*
X140412857Y-95947200D02*
X140270000Y-95994819D01*
X140270000Y-95994819D02*
X140031905Y-95994819D01*
X140984286Y-95090057D02*
X141031905Y-95042438D01*
X141031905Y-95042438D02*
X141127143Y-94994819D01*
X141127143Y-94994819D02*
X141365238Y-94994819D01*
X141365238Y-94994819D02*
X141460476Y-95042438D01*
X141460476Y-95042438D02*
X141508095Y-95090057D01*
X141508095Y-95090057D02*
X141555714Y-95185295D01*
X141555714Y-95185295D02*
X141555714Y-95280533D01*
X141555714Y-95280533D02*
X141508095Y-95423390D01*
X141508095Y-95423390D02*
X140936667Y-95994819D01*
X140936667Y-95994819D02*
X141555714Y-95994819D01*
X115256905Y-121494819D02*
X115256905Y-120494819D01*
X115256905Y-120494819D02*
X115495000Y-120494819D01*
X115495000Y-120494819D02*
X115637857Y-120542438D01*
X115637857Y-120542438D02*
X115733095Y-120637676D01*
X115733095Y-120637676D02*
X115780714Y-120732914D01*
X115780714Y-120732914D02*
X115828333Y-120923390D01*
X115828333Y-120923390D02*
X115828333Y-121066247D01*
X115828333Y-121066247D02*
X115780714Y-121256723D01*
X115780714Y-121256723D02*
X115733095Y-121351961D01*
X115733095Y-121351961D02*
X115637857Y-121447200D01*
X115637857Y-121447200D02*
X115495000Y-121494819D01*
X115495000Y-121494819D02*
X115256905Y-121494819D01*
X116161667Y-120494819D02*
X116780714Y-120494819D01*
X116780714Y-120494819D02*
X116447381Y-120875771D01*
X116447381Y-120875771D02*
X116590238Y-120875771D01*
X116590238Y-120875771D02*
X116685476Y-120923390D01*
X116685476Y-120923390D02*
X116733095Y-120971009D01*
X116733095Y-120971009D02*
X116780714Y-121066247D01*
X116780714Y-121066247D02*
X116780714Y-121304342D01*
X116780714Y-121304342D02*
X116733095Y-121399580D01*
X116733095Y-121399580D02*
X116685476Y-121447200D01*
X116685476Y-121447200D02*
X116590238Y-121494819D01*
X116590238Y-121494819D02*
X116304524Y-121494819D01*
X116304524Y-121494819D02*
X116209286Y-121447200D01*
X116209286Y-121447200D02*
X116161667Y-121399580D01*
D12*
%TO.C,R8*%
X87320000Y-92500000D02*
X88270000Y-92500000D01*
X93060000Y-92500000D02*
X92110000Y-92500000D01*
X88270000Y-91580000D02*
X92110000Y-91580000D01*
X92110000Y-93420000D01*
X88270000Y-93420000D01*
X88270000Y-91580000D01*
%TO.C,R3*%
X137820000Y-92000000D02*
X138770000Y-92000000D01*
X143560000Y-92000000D02*
X142610000Y-92000000D01*
X138770000Y-91080000D02*
X142610000Y-91080000D01*
X142610000Y-92920000D01*
X138770000Y-92920000D01*
X138770000Y-91080000D01*
%TO.C,Q1*%
X118262383Y-82612264D02*
G75*
G02*
X117870000Y-83200000I-2302383J1112264D01*
G01*
X115960000Y-78900000D02*
G75*
G02*
X118316400Y-80401193I0J-2600000D01*
G01*
X114020000Y-83200000D02*
G75*
G02*
X113637369Y-82622045I1940000J1700000D01*
G01*
X113603600Y-80401193D02*
G75*
G02*
X115960000Y-78900000I2356400J-1098807D01*
G01*
X114020000Y-83200000D02*
X117870000Y-83200000D01*
%TO.C,C1*%
X112880000Y-64130000D02*
X118120000Y-64130000D01*
X112880000Y-64467000D02*
X112880000Y-64130000D01*
X112880000Y-66870000D02*
X112880000Y-66533000D01*
X118120000Y-64130000D02*
X118120000Y-64467000D01*
X118120000Y-66533000D02*
X118120000Y-66870000D01*
X118120000Y-66870000D02*
X112880000Y-66870000D01*
%TO.C,R1*%
X107500000Y-75680000D02*
X107500000Y-74730000D01*
X107500000Y-69940000D02*
X107500000Y-70890000D01*
X106580000Y-74730000D02*
X108420000Y-74730000D01*
X108420000Y-70890000D01*
X106580000Y-70890000D01*
X106580000Y-74730000D01*
%TO.C,D1*%
X113170000Y-71455000D02*
X113170000Y-74545000D01*
X113170000Y-71455170D02*
G75*
G02*
X118720000Y-73000000I2560000J-1544830D01*
G01*
X118720000Y-73000000D02*
G75*
G02*
X113170000Y-74544830I-2990000J0D01*
G01*
X118230000Y-73000000D02*
G75*
G02*
X113230000Y-73000000I-2500000J0D01*
G01*
X113230000Y-73000000D02*
G75*
G02*
X118230000Y-73000000I2500000J0D01*
G01*
%TO.C,R4*%
X138770000Y-106080000D02*
X142610000Y-106080000D01*
X142610000Y-107920000D01*
X138770000Y-107920000D01*
X138770000Y-106080000D01*
X143560000Y-107000000D02*
X142610000Y-107000000D01*
X137820000Y-107000000D02*
X138770000Y-107000000D01*
%TO.C,R7*%
X87320000Y-107000000D02*
X88270000Y-107000000D01*
X93060000Y-107000000D02*
X92110000Y-107000000D01*
X88270000Y-106080000D02*
X92110000Y-106080000D01*
X92110000Y-107920000D01*
X88270000Y-107920000D01*
X88270000Y-106080000D01*
%TO.C,R5*%
X108500000Y-128180000D02*
X108500000Y-127230000D01*
X108500000Y-122440000D02*
X108500000Y-123390000D01*
X107580000Y-127230000D02*
X109420000Y-127230000D01*
X109420000Y-123390000D01*
X107580000Y-123390000D01*
X107580000Y-127230000D01*
%TO.C,C4*%
X81130000Y-102120000D02*
X81130000Y-96880000D01*
X81467000Y-102120000D02*
X81130000Y-102120000D01*
X83870000Y-102120000D02*
X83533000Y-102120000D01*
X81130000Y-96880000D02*
X81467000Y-96880000D01*
X83533000Y-96880000D02*
X83870000Y-96880000D01*
X83870000Y-96880000D02*
X83870000Y-102120000D01*
%TO.C,R6*%
X123500000Y-128180000D02*
X123500000Y-127230000D01*
X123500000Y-122440000D02*
X123500000Y-123390000D01*
X122580000Y-127230000D02*
X124420000Y-127230000D01*
X124420000Y-123390000D01*
X122580000Y-123390000D01*
X122580000Y-127230000D01*
%TO.C,J1*%
X113080000Y-104880000D02*
X113080000Y-103500000D01*
X114460000Y-104880000D02*
X113080000Y-104880000D01*
X115730000Y-104880000D02*
X118380000Y-104880000D01*
X115730000Y-104880000D02*
X115730000Y-102120000D01*
X118380000Y-104880000D02*
X118380000Y-102120000D01*
X115730000Y-102120000D02*
X118380000Y-102120000D01*
%TO.C,Q4*%
X96337736Y-101842383D02*
G75*
G02*
X95750000Y-101450000I1112264J2302383D01*
G01*
X100050000Y-99540000D02*
G75*
G02*
X98548807Y-101896400I-2600000J0D01*
G01*
X95750000Y-97600000D02*
G75*
G02*
X96327955Y-97217369I1700000J-1940000D01*
G01*
X98548807Y-97183600D02*
G75*
G02*
X100050000Y-99540000I-1098807J-2356400D01*
G01*
X95750000Y-97600000D02*
X95750000Y-101450000D01*
%TO.C,D4*%
X87670000Y-97955000D02*
X87670000Y-101045000D01*
X87670000Y-97955170D02*
G75*
G02*
X93220000Y-99500000I2560000J-1544830D01*
G01*
X93220000Y-99500000D02*
G75*
G02*
X87670000Y-101044830I-2990000J0D01*
G01*
X92730000Y-99500000D02*
G75*
G02*
X87730000Y-99500000I-2500000J0D01*
G01*
X87730000Y-99500000D02*
G75*
G02*
X92730000Y-99500000I2500000J0D01*
G01*
%TO.C,SW1*%
X113250000Y-96000000D02*
X113250000Y-94500000D01*
X112000000Y-92000000D02*
X107500000Y-92000000D01*
X107500000Y-98500000D02*
X112000000Y-98500000D01*
X106250000Y-94500000D02*
X106250000Y-96000000D01*
%TO.C,R2*%
X124000000Y-75680000D02*
X124000000Y-74730000D01*
X124000000Y-69940000D02*
X124000000Y-70890000D01*
X123080000Y-74730000D02*
X124920000Y-74730000D01*
X124920000Y-70890000D01*
X123080000Y-70890000D01*
X123080000Y-74730000D01*
%TO.C,Q2*%
X130887736Y-101842383D02*
G75*
G02*
X130300000Y-101450000I1112264J2302383D01*
G01*
X134600000Y-99540000D02*
G75*
G02*
X133098807Y-101896400I-2600000J0D01*
G01*
X130300000Y-97600000D02*
G75*
G02*
X130877955Y-97217369I1700000J-1940000D01*
G01*
X133098807Y-97183600D02*
G75*
G02*
X134600000Y-99540000I-1098807J-2356400D01*
G01*
X130300000Y-97600000D02*
X130300000Y-101450000D01*
%TO.C,C2*%
X113380000Y-131630000D02*
X118620000Y-131630000D01*
X113380000Y-131967000D02*
X113380000Y-131630000D01*
X113380000Y-134370000D02*
X113380000Y-134033000D01*
X118620000Y-131630000D02*
X118620000Y-131967000D01*
X118620000Y-134033000D02*
X118620000Y-134370000D01*
X118620000Y-134370000D02*
X113380000Y-134370000D01*
%TO.C,SW2*%
X125250000Y-96000000D02*
X125250000Y-94500000D01*
X124000000Y-92000000D02*
X119500000Y-92000000D01*
X119500000Y-98500000D02*
X124000000Y-98500000D01*
X118250000Y-94500000D02*
X118250000Y-96000000D01*
%TO.C,Q3*%
X118342383Y-118112264D02*
G75*
G02*
X117950000Y-118700000I-2302383J1112264D01*
G01*
X116040000Y-114400000D02*
G75*
G02*
X118396400Y-115901193I0J-2600000D01*
G01*
X114100000Y-118700000D02*
G75*
G02*
X113717369Y-118122045I1940000J1700000D01*
G01*
X113683600Y-115901193D02*
G75*
G02*
X116040000Y-114400000I2356400J-1098807D01*
G01*
X114100000Y-118700000D02*
X117950000Y-118700000D01*
%TO.C,C3*%
X149870000Y-97380000D02*
X149870000Y-102620000D01*
X149533000Y-97380000D02*
X149870000Y-97380000D01*
X147130000Y-97380000D02*
X147467000Y-97380000D01*
X149870000Y-102620000D02*
X149533000Y-102620000D01*
X147467000Y-102620000D02*
X147130000Y-102620000D01*
X147130000Y-102620000D02*
X147130000Y-97380000D01*
%TO.C,D2*%
X143270000Y-99500000D02*
G75*
G02*
X138270000Y-99500000I-2500000J0D01*
G01*
X138270000Y-99500000D02*
G75*
G02*
X143270000Y-99500000I2500000J0D01*
G01*
X143760000Y-99500000D02*
G75*
G02*
X138210000Y-101044830I-2990000J0D01*
G01*
X138210000Y-97955170D02*
G75*
G02*
X143760000Y-99500000I2560000J-1544830D01*
G01*
X138210000Y-97955000D02*
X138210000Y-101045000D01*
%TO.C,D3*%
X113435000Y-123455000D02*
X113435000Y-126545000D01*
X113435000Y-123455170D02*
G75*
G02*
X118985000Y-125000000I2560000J-1544830D01*
G01*
X118985000Y-125000000D02*
G75*
G02*
X113435000Y-126544830I-2990000J0D01*
G01*
X118495000Y-125000000D02*
G75*
G02*
X113495000Y-125000000I-2500000J0D01*
G01*
X113495000Y-125000000D02*
G75*
G02*
X118495000Y-125000000I2500000J0D01*
G01*
%TD*%
M02*
