%TF.GenerationSoftware,KiCad,Pcbnew,9.0.7*%
%TF.CreationDate,2026-03-24T17:24:52-07:00*%
%TF.ProjectId,Untitled,556e7469-746c-4656-942e-6b696361645f,rev?*%
%TF.SameCoordinates,Original*%
%TF.FileFunction,Copper,L2,Bot*%
%TF.FilePolarity,Positive*%
%FSLAX46Y46*%
G04 Gerber Fmt 4.6, Leading zero omitted, Abs format (unit mm)*
G04 Created by KiCad (PCBNEW 9.0.7) date 2026-03-24 17:24:52*
%MOMM*%
%LPD*%
G01*
G04 APERTURE LIST*
%TA.AperFunction,ComponentPad*%
%ADD10C,1.400000*%
%TD*%
%TA.AperFunction,ComponentPad*%
%ADD11C,1.500000*%
%TD*%
%TA.AperFunction,ComponentPad*%
%ADD12R,1.500000X1.500000*%
%TD*%
%TA.AperFunction,ComponentPad*%
%ADD13C,1.600000*%
%TD*%
%TA.AperFunction,ComponentPad*%
%ADD14R,1.800000X1.800000*%
%TD*%
%TA.AperFunction,ComponentPad*%
%ADD15C,1.800000*%
%TD*%
%TA.AperFunction,ComponentPad*%
%ADD16R,1.700000X1.700000*%
%TD*%
%TA.AperFunction,ComponentPad*%
%ADD17C,1.700000*%
%TD*%
%TA.AperFunction,ComponentPad*%
%ADD18C,2.000000*%
%TD*%
%TA.AperFunction,ViaPad*%
%ADD19C,0.600000*%
%TD*%
%TA.AperFunction,Conductor*%
%ADD20C,0.200000*%
%TD*%
G04 APERTURE END LIST*
D10*
%TO.P,R8,1*%
%TO.N,Net-(R5-Pad1)*%
X86380000Y-92500000D03*
%TO.P,R8,2*%
%TO.N,Net-(D4-A)*%
X94000000Y-92500000D03*
%TD*%
%TO.P,R3,1*%
%TO.N,Net-(R1-Pad1)*%
X136880000Y-92000000D03*
%TO.P,R3,2*%
%TO.N,Net-(Q3-B)*%
X144500000Y-92000000D03*
%TD*%
D11*
%TO.P,Q1,3,E*%
%TO.N,Net-(D1-K)*%
X118500000Y-81500000D03*
%TO.P,Q1,2,C*%
%TO.N,GND*%
X115960000Y-81500000D03*
D12*
%TO.P,Q1,1,B*%
%TO.N,Net-(Q1-B)*%
X113420000Y-81500000D03*
%TD*%
D13*
%TO.P,C1,1*%
%TO.N,Net-(D1-A)*%
X113000000Y-65500000D03*
%TO.P,C1,2*%
%TO.N,Net-(Q2-B)*%
X118000000Y-65500000D03*
%TD*%
D10*
%TO.P,R1,1*%
%TO.N,Net-(R1-Pad1)*%
X107500000Y-76620000D03*
%TO.P,R1,2*%
%TO.N,Net-(D1-A)*%
X107500000Y-69000000D03*
%TD*%
D14*
%TO.P,D1,1,K*%
%TO.N,Net-(D1-K)*%
X114460000Y-73000000D03*
D15*
%TO.P,D1,2,A*%
%TO.N,Net-(D1-A)*%
X117000000Y-73000000D03*
%TD*%
D10*
%TO.P,R4,2*%
%TO.N,Net-(D2-A)*%
X144500000Y-107000000D03*
%TO.P,R4,1*%
%TO.N,Net-(R1-Pad1)*%
X136880000Y-107000000D03*
%TD*%
%TO.P,R7,1*%
%TO.N,Net-(R5-Pad1)*%
X86380000Y-107000000D03*
%TO.P,R7,2*%
%TO.N,Net-(Q1-B)*%
X94000000Y-107000000D03*
%TD*%
%TO.P,R5,1*%
%TO.N,Net-(R5-Pad1)*%
X108500000Y-129120000D03*
%TO.P,R5,2*%
%TO.N,Net-(D3-A)*%
X108500000Y-121500000D03*
%TD*%
D13*
%TO.P,C4,1*%
%TO.N,Net-(Q1-B)*%
X82500000Y-102000000D03*
%TO.P,C4,2*%
%TO.N,Net-(D4-A)*%
X82500000Y-97000000D03*
%TD*%
D10*
%TO.P,R6,1*%
%TO.N,Net-(R5-Pad1)*%
X123500000Y-129120000D03*
%TO.P,R6,2*%
%TO.N,Net-(Q4-B)*%
X123500000Y-121500000D03*
%TD*%
D16*
%TO.P,J1,1,Pin_1*%
%TO.N,GND*%
X114460000Y-103500000D03*
D17*
%TO.P,J1,2,Pin_2*%
%TO.N,VCC*%
X117000000Y-103500000D03*
%TD*%
D11*
%TO.P,Q4,3,E*%
%TO.N,GND*%
X97450000Y-102080000D03*
%TO.P,Q4,2,C*%
%TO.N,Net-(D4-K)*%
X97450000Y-99540000D03*
D12*
%TO.P,Q4,1,B*%
%TO.N,Net-(Q4-B)*%
X97450000Y-97000000D03*
%TD*%
D14*
%TO.P,D4,1,K*%
%TO.N,Net-(D4-K)*%
X88960000Y-99500000D03*
D15*
%TO.P,D4,2,A*%
%TO.N,Net-(D4-A)*%
X91500000Y-99500000D03*
%TD*%
D18*
%TO.P,SW1,2,2*%
%TO.N,Net-(R1-Pad1)*%
X113000000Y-97500000D03*
X106500000Y-97500000D03*
%TO.P,SW1,1,1*%
%TO.N,VCC*%
X113000000Y-93000000D03*
X106500000Y-93000000D03*
%TD*%
D10*
%TO.P,R2,1*%
%TO.N,Net-(R1-Pad1)*%
X124000000Y-76620000D03*
%TO.P,R2,2*%
%TO.N,Net-(Q2-B)*%
X124000000Y-69000000D03*
%TD*%
D11*
%TO.P,Q2,3,E*%
%TO.N,GND*%
X132000000Y-102080000D03*
%TO.P,Q2,2,C*%
%TO.N,Net-(D2-K)*%
X132000000Y-99540000D03*
D12*
%TO.P,Q2,1,B*%
%TO.N,Net-(Q2-B)*%
X132000000Y-97000000D03*
%TD*%
D13*
%TO.P,C2,1*%
%TO.N,Net-(D3-A)*%
X113500000Y-133000000D03*
%TO.P,C2,2*%
%TO.N,Net-(Q4-B)*%
X118500000Y-133000000D03*
%TD*%
D18*
%TO.P,SW2,2,2*%
%TO.N,Net-(R1-Pad1)*%
X125000000Y-97500000D03*
X118500000Y-97500000D03*
%TO.P,SW2,1,1*%
%TO.N,Net-(R5-Pad1)*%
X125000000Y-93000000D03*
X118500000Y-93000000D03*
%TD*%
D11*
%TO.P,Q3,3,E*%
%TO.N,Net-(D3-K)*%
X118580000Y-117000000D03*
%TO.P,Q3,2,C*%
%TO.N,GND*%
X116040000Y-117000000D03*
D12*
%TO.P,Q3,1,B*%
%TO.N,Net-(Q3-B)*%
X113500000Y-117000000D03*
%TD*%
D13*
%TO.P,C3,1*%
%TO.N,Net-(Q3-B)*%
X148500000Y-97500000D03*
%TO.P,C3,2*%
%TO.N,Net-(D2-A)*%
X148500000Y-102500000D03*
%TD*%
D15*
%TO.P,D2,2,A*%
%TO.N,Net-(D2-A)*%
X142040000Y-99500000D03*
D14*
%TO.P,D2,1,K*%
%TO.N,Net-(D2-K)*%
X139500000Y-99500000D03*
%TD*%
%TO.P,D3,1,K*%
%TO.N,Net-(D3-K)*%
X114725000Y-125000000D03*
D15*
%TO.P,D3,2,A*%
%TO.N,Net-(D3-A)*%
X117265000Y-125000000D03*
%TD*%
D19*
%TO.N,VCC*%
X114500000Y-89500000D03*
%TO.N,Net-(Q3-B)*%
X111500000Y-110500000D03*
%TO.N,Net-(Q4-B)*%
X103000000Y-102500000D03*
%TD*%
D20*
%TO.N,VCC*%
X117000000Y-103500000D02*
X117011000Y-103489000D01*
X117011000Y-103489000D02*
X117011000Y-81064661D01*
X117011000Y-81064661D02*
X116395339Y-80449000D01*
X114471000Y-81502661D02*
X114471000Y-91529000D01*
X116395339Y-80449000D02*
X115524661Y-80449000D01*
X115524661Y-80449000D02*
X114471000Y-81502661D01*
X114471000Y-91529000D02*
X113000000Y-93000000D01*
%TO.N,GND*%
X115960000Y-81500000D02*
X115960000Y-102000000D01*
X115960000Y-102000000D02*
X114460000Y-103500000D01*
X114460000Y-103500000D02*
X115611000Y-104651000D01*
X115611000Y-104651000D02*
X129429000Y-104651000D01*
X129429000Y-104651000D02*
X132000000Y-102080000D01*
X97450000Y-102080000D02*
X98870000Y-103500000D01*
X98870000Y-103500000D02*
X114460000Y-103500000D01*
X116040000Y-117000000D02*
X110899000Y-111859000D01*
X110899000Y-111859000D02*
X110899000Y-107061000D01*
X110899000Y-107061000D02*
X114460000Y-103500000D01*
%TO.N,VCC*%
X114500000Y-89500000D02*
X110000000Y-89500000D01*
X110000000Y-89500000D02*
X106500000Y-93000000D01*
%TO.N,Net-(Q3-B)*%
X111500000Y-110500000D02*
X126000000Y-110500000D01*
X126000000Y-110500000D02*
X144500000Y-92000000D01*
%TO.N,Net-(Q4-B)*%
X103000000Y-102500000D02*
X102950000Y-102500000D01*
X102950000Y-102500000D02*
X97450000Y-97000000D01*
%TD*%
M02*
