%TF.GenerationSoftware,KiCad,Pcbnew,9.0.7*%
%TF.CreationDate,2026-03-24T17:24:52-07:00*%
%TF.ProjectId,Untitled,556e7469-746c-4656-942e-6b696361645f,rev?*%
%TF.SameCoordinates,Original*%
%TF.FileFunction,Legend,Bot*%
%TF.FilePolarity,Positive*%
%FSLAX46Y46*%
G04 Gerber Fmt 4.6, Leading zero omitted, Abs format (unit mm)*
G04 Created by KiCad (PCBNEW 9.0.7) date 2026-03-24 17:24:52*
%MOMM*%
%LPD*%
G01*
G04 APERTURE LIST*
%ADD10C,0.100000*%
G04 APERTURE END LIST*
D10*
X129696115Y-109372419D02*
X129696115Y-108372419D01*
X129267544Y-109372419D02*
X129267544Y-108848609D01*
X129267544Y-108848609D02*
X129315163Y-108753371D01*
X129315163Y-108753371D02*
X129410401Y-108705752D01*
X129410401Y-108705752D02*
X129553258Y-108705752D01*
X129553258Y-108705752D02*
X129648496Y-108753371D01*
X129648496Y-108753371D02*
X129696115Y-108800990D01*
X128934210Y-108705752D02*
X128553258Y-108705752D01*
X128791353Y-108372419D02*
X128791353Y-109229561D01*
X128791353Y-109229561D02*
X128743734Y-109324800D01*
X128743734Y-109324800D02*
X128648496Y-109372419D01*
X128648496Y-109372419D02*
X128553258Y-109372419D01*
X128362781Y-108705752D02*
X127981829Y-108705752D01*
X128219924Y-108372419D02*
X128219924Y-109229561D01*
X128219924Y-109229561D02*
X128172305Y-109324800D01*
X128172305Y-109324800D02*
X128077067Y-109372419D01*
X128077067Y-109372419D02*
X127981829Y-109372419D01*
X127648495Y-108705752D02*
X127648495Y-109705752D01*
X127648495Y-108753371D02*
X127553257Y-108705752D01*
X127553257Y-108705752D02*
X127362781Y-108705752D01*
X127362781Y-108705752D02*
X127267543Y-108753371D01*
X127267543Y-108753371D02*
X127219924Y-108800990D01*
X127219924Y-108800990D02*
X127172305Y-108896228D01*
X127172305Y-108896228D02*
X127172305Y-109181942D01*
X127172305Y-109181942D02*
X127219924Y-109277180D01*
X127219924Y-109277180D02*
X127267543Y-109324800D01*
X127267543Y-109324800D02*
X127362781Y-109372419D01*
X127362781Y-109372419D02*
X127553257Y-109372419D01*
X127553257Y-109372419D02*
X127648495Y-109324800D01*
X126791352Y-109324800D02*
X126696114Y-109372419D01*
X126696114Y-109372419D02*
X126505638Y-109372419D01*
X126505638Y-109372419D02*
X126410400Y-109324800D01*
X126410400Y-109324800D02*
X126362781Y-109229561D01*
X126362781Y-109229561D02*
X126362781Y-109181942D01*
X126362781Y-109181942D02*
X126410400Y-109086704D01*
X126410400Y-109086704D02*
X126505638Y-109039085D01*
X126505638Y-109039085D02*
X126648495Y-109039085D01*
X126648495Y-109039085D02*
X126743733Y-108991466D01*
X126743733Y-108991466D02*
X126791352Y-108896228D01*
X126791352Y-108896228D02*
X126791352Y-108848609D01*
X126791352Y-108848609D02*
X126743733Y-108753371D01*
X126743733Y-108753371D02*
X126648495Y-108705752D01*
X126648495Y-108705752D02*
X126505638Y-108705752D01*
X126505638Y-108705752D02*
X126410400Y-108753371D01*
X125934209Y-109277180D02*
X125886590Y-109324800D01*
X125886590Y-109324800D02*
X125934209Y-109372419D01*
X125934209Y-109372419D02*
X125981828Y-109324800D01*
X125981828Y-109324800D02*
X125934209Y-109277180D01*
X125934209Y-109277180D02*
X125934209Y-109372419D01*
X125934209Y-108753371D02*
X125886590Y-108800990D01*
X125886590Y-108800990D02*
X125934209Y-108848609D01*
X125934209Y-108848609D02*
X125981828Y-108800990D01*
X125981828Y-108800990D02*
X125934209Y-108753371D01*
X125934209Y-108753371D02*
X125934209Y-108848609D01*
X124743734Y-108324800D02*
X125600876Y-109610514D01*
X123696115Y-108324800D02*
X124553257Y-109610514D01*
X122934210Y-108705752D02*
X122934210Y-109515276D01*
X122934210Y-109515276D02*
X122981829Y-109610514D01*
X122981829Y-109610514D02*
X123029448Y-109658133D01*
X123029448Y-109658133D02*
X123124686Y-109705752D01*
X123124686Y-109705752D02*
X123267543Y-109705752D01*
X123267543Y-109705752D02*
X123362781Y-109658133D01*
X122934210Y-109324800D02*
X123029448Y-109372419D01*
X123029448Y-109372419D02*
X123219924Y-109372419D01*
X123219924Y-109372419D02*
X123315162Y-109324800D01*
X123315162Y-109324800D02*
X123362781Y-109277180D01*
X123362781Y-109277180D02*
X123410400Y-109181942D01*
X123410400Y-109181942D02*
X123410400Y-108896228D01*
X123410400Y-108896228D02*
X123362781Y-108800990D01*
X123362781Y-108800990D02*
X123315162Y-108753371D01*
X123315162Y-108753371D02*
X123219924Y-108705752D01*
X123219924Y-108705752D02*
X123029448Y-108705752D01*
X123029448Y-108705752D02*
X122934210Y-108753371D01*
X122458019Y-109372419D02*
X122458019Y-108705752D01*
X122458019Y-108372419D02*
X122505638Y-108420038D01*
X122505638Y-108420038D02*
X122458019Y-108467657D01*
X122458019Y-108467657D02*
X122410400Y-108420038D01*
X122410400Y-108420038D02*
X122458019Y-108372419D01*
X122458019Y-108372419D02*
X122458019Y-108467657D01*
X122124686Y-108705752D02*
X121743734Y-108705752D01*
X121981829Y-108372419D02*
X121981829Y-109229561D01*
X121981829Y-109229561D02*
X121934210Y-109324800D01*
X121934210Y-109324800D02*
X121838972Y-109372419D01*
X121838972Y-109372419D02*
X121743734Y-109372419D01*
X121410400Y-109372419D02*
X121410400Y-108372419D01*
X120981829Y-109372419D02*
X120981829Y-108848609D01*
X120981829Y-108848609D02*
X121029448Y-108753371D01*
X121029448Y-108753371D02*
X121124686Y-108705752D01*
X121124686Y-108705752D02*
X121267543Y-108705752D01*
X121267543Y-108705752D02*
X121362781Y-108753371D01*
X121362781Y-108753371D02*
X121410400Y-108800990D01*
X120077067Y-108705752D02*
X120077067Y-109372419D01*
X120505638Y-108705752D02*
X120505638Y-109229561D01*
X120505638Y-109229561D02*
X120458019Y-109324800D01*
X120458019Y-109324800D02*
X120362781Y-109372419D01*
X120362781Y-109372419D02*
X120219924Y-109372419D01*
X120219924Y-109372419D02*
X120124686Y-109324800D01*
X120124686Y-109324800D02*
X120077067Y-109277180D01*
X119600876Y-109372419D02*
X119600876Y-108372419D01*
X119600876Y-108753371D02*
X119505638Y-108705752D01*
X119505638Y-108705752D02*
X119315162Y-108705752D01*
X119315162Y-108705752D02*
X119219924Y-108753371D01*
X119219924Y-108753371D02*
X119172305Y-108800990D01*
X119172305Y-108800990D02*
X119124686Y-108896228D01*
X119124686Y-108896228D02*
X119124686Y-109181942D01*
X119124686Y-109181942D02*
X119172305Y-109277180D01*
X119172305Y-109277180D02*
X119219924Y-109324800D01*
X119219924Y-109324800D02*
X119315162Y-109372419D01*
X119315162Y-109372419D02*
X119505638Y-109372419D01*
X119505638Y-109372419D02*
X119600876Y-109324800D01*
X118696114Y-109277180D02*
X118648495Y-109324800D01*
X118648495Y-109324800D02*
X118696114Y-109372419D01*
X118696114Y-109372419D02*
X118743733Y-109324800D01*
X118743733Y-109324800D02*
X118696114Y-109277180D01*
X118696114Y-109277180D02*
X118696114Y-109372419D01*
X117791353Y-109324800D02*
X117886591Y-109372419D01*
X117886591Y-109372419D02*
X118077067Y-109372419D01*
X118077067Y-109372419D02*
X118172305Y-109324800D01*
X118172305Y-109324800D02*
X118219924Y-109277180D01*
X118219924Y-109277180D02*
X118267543Y-109181942D01*
X118267543Y-109181942D02*
X118267543Y-108896228D01*
X118267543Y-108896228D02*
X118219924Y-108800990D01*
X118219924Y-108800990D02*
X118172305Y-108753371D01*
X118172305Y-108753371D02*
X118077067Y-108705752D01*
X118077067Y-108705752D02*
X117886591Y-108705752D01*
X117886591Y-108705752D02*
X117791353Y-108753371D01*
X117219924Y-109372419D02*
X117315162Y-109324800D01*
X117315162Y-109324800D02*
X117362781Y-109277180D01*
X117362781Y-109277180D02*
X117410400Y-109181942D01*
X117410400Y-109181942D02*
X117410400Y-108896228D01*
X117410400Y-108896228D02*
X117362781Y-108800990D01*
X117362781Y-108800990D02*
X117315162Y-108753371D01*
X117315162Y-108753371D02*
X117219924Y-108705752D01*
X117219924Y-108705752D02*
X117077067Y-108705752D01*
X117077067Y-108705752D02*
X116981829Y-108753371D01*
X116981829Y-108753371D02*
X116934210Y-108800990D01*
X116934210Y-108800990D02*
X116886591Y-108896228D01*
X116886591Y-108896228D02*
X116886591Y-109181942D01*
X116886591Y-109181942D02*
X116934210Y-109277180D01*
X116934210Y-109277180D02*
X116981829Y-109324800D01*
X116981829Y-109324800D02*
X117077067Y-109372419D01*
X117077067Y-109372419D02*
X117219924Y-109372419D01*
X116458019Y-109372419D02*
X116458019Y-108705752D01*
X116458019Y-108800990D02*
X116410400Y-108753371D01*
X116410400Y-108753371D02*
X116315162Y-108705752D01*
X116315162Y-108705752D02*
X116172305Y-108705752D01*
X116172305Y-108705752D02*
X116077067Y-108753371D01*
X116077067Y-108753371D02*
X116029448Y-108848609D01*
X116029448Y-108848609D02*
X116029448Y-109372419D01*
X116029448Y-108848609D02*
X115981829Y-108753371D01*
X115981829Y-108753371D02*
X115886591Y-108705752D01*
X115886591Y-108705752D02*
X115743734Y-108705752D01*
X115743734Y-108705752D02*
X115648495Y-108753371D01*
X115648495Y-108753371D02*
X115600876Y-108848609D01*
X115600876Y-108848609D02*
X115600876Y-109372419D01*
X114410401Y-108324800D02*
X115267543Y-109610514D01*
X114172305Y-108372419D02*
X113934210Y-109372419D01*
X113934210Y-109372419D02*
X113743734Y-108658133D01*
X113743734Y-108658133D02*
X113553258Y-109372419D01*
X113553258Y-109372419D02*
X113315163Y-108372419D01*
X112934210Y-108705752D02*
X112934210Y-109562895D01*
X112934210Y-109562895D02*
X112981829Y-109658133D01*
X112981829Y-109658133D02*
X113077067Y-109705752D01*
X113077067Y-109705752D02*
X113124686Y-109705752D01*
X112934210Y-108372419D02*
X112981829Y-108420038D01*
X112981829Y-108420038D02*
X112934210Y-108467657D01*
X112934210Y-108467657D02*
X112886591Y-108420038D01*
X112886591Y-108420038D02*
X112934210Y-108372419D01*
X112934210Y-108372419D02*
X112934210Y-108467657D01*
X112029449Y-109324800D02*
X112124687Y-109372419D01*
X112124687Y-109372419D02*
X112315163Y-109372419D01*
X112315163Y-109372419D02*
X112410401Y-109324800D01*
X112410401Y-109324800D02*
X112458020Y-109277180D01*
X112458020Y-109277180D02*
X112505639Y-109181942D01*
X112505639Y-109181942D02*
X112505639Y-108896228D01*
X112505639Y-108896228D02*
X112458020Y-108800990D01*
X112458020Y-108800990D02*
X112410401Y-108753371D01*
X112410401Y-108753371D02*
X112315163Y-108705752D01*
X112315163Y-108705752D02*
X112124687Y-108705752D01*
X112124687Y-108705752D02*
X112029449Y-108753371D01*
X111600877Y-109372419D02*
X111600877Y-108372419D01*
X111172306Y-109372419D02*
X111172306Y-108848609D01*
X111172306Y-108848609D02*
X111219925Y-108753371D01*
X111219925Y-108753371D02*
X111315163Y-108705752D01*
X111315163Y-108705752D02*
X111458020Y-108705752D01*
X111458020Y-108705752D02*
X111553258Y-108753371D01*
X111553258Y-108753371D02*
X111600877Y-108800990D01*
X110553258Y-109372419D02*
X110648496Y-109324800D01*
X110648496Y-109324800D02*
X110696115Y-109277180D01*
X110696115Y-109277180D02*
X110743734Y-109181942D01*
X110743734Y-109181942D02*
X110743734Y-108896228D01*
X110743734Y-108896228D02*
X110696115Y-108800990D01*
X110696115Y-108800990D02*
X110648496Y-108753371D01*
X110648496Y-108753371D02*
X110553258Y-108705752D01*
X110553258Y-108705752D02*
X110410401Y-108705752D01*
X110410401Y-108705752D02*
X110315163Y-108753371D01*
X110315163Y-108753371D02*
X110267544Y-108800990D01*
X110267544Y-108800990D02*
X110219925Y-108896228D01*
X110219925Y-108896228D02*
X110219925Y-109181942D01*
X110219925Y-109181942D02*
X110267544Y-109277180D01*
X110267544Y-109277180D02*
X110315163Y-109324800D01*
X110315163Y-109324800D02*
X110410401Y-109372419D01*
X110410401Y-109372419D02*
X110553258Y-109372419D01*
X109362782Y-108705752D02*
X109362782Y-109372419D01*
X109791353Y-108705752D02*
X109791353Y-109229561D01*
X109791353Y-109229561D02*
X109743734Y-109324800D01*
X109743734Y-109324800D02*
X109648496Y-109372419D01*
X109648496Y-109372419D02*
X109505639Y-109372419D01*
X109505639Y-109372419D02*
X109410401Y-109324800D01*
X109410401Y-109324800D02*
X109362782Y-109277180D01*
X108934210Y-108467657D02*
X108886591Y-108420038D01*
X108886591Y-108420038D02*
X108791353Y-108372419D01*
X108791353Y-108372419D02*
X108553258Y-108372419D01*
X108553258Y-108372419D02*
X108458020Y-108420038D01*
X108458020Y-108420038D02*
X108410401Y-108467657D01*
X108410401Y-108467657D02*
X108362782Y-108562895D01*
X108362782Y-108562895D02*
X108362782Y-108658133D01*
X108362782Y-108658133D02*
X108410401Y-108800990D01*
X108410401Y-108800990D02*
X108981829Y-109372419D01*
X108981829Y-109372419D02*
X108362782Y-109372419D01*
X107219925Y-108324800D02*
X108077067Y-109610514D01*
X106410401Y-109372419D02*
X106886591Y-109372419D01*
X106886591Y-109372419D02*
X106886591Y-108372419D01*
X106077067Y-108848609D02*
X105743734Y-108848609D01*
X105600877Y-109372419D02*
X106077067Y-109372419D01*
X106077067Y-109372419D02*
X106077067Y-108372419D01*
X106077067Y-108372419D02*
X105600877Y-108372419D01*
X105172305Y-109372419D02*
X105172305Y-108372419D01*
X105172305Y-108372419D02*
X104934210Y-108372419D01*
X104934210Y-108372419D02*
X104791353Y-108420038D01*
X104791353Y-108420038D02*
X104696115Y-108515276D01*
X104696115Y-108515276D02*
X104648496Y-108610514D01*
X104648496Y-108610514D02*
X104600877Y-108800990D01*
X104600877Y-108800990D02*
X104600877Y-108943847D01*
X104600877Y-108943847D02*
X104648496Y-109134323D01*
X104648496Y-109134323D02*
X104696115Y-109229561D01*
X104696115Y-109229561D02*
X104791353Y-109324800D01*
X104791353Y-109324800D02*
X104934210Y-109372419D01*
X104934210Y-109372419D02*
X105172305Y-109372419D01*
X104219924Y-109324800D02*
X104077067Y-109372419D01*
X104077067Y-109372419D02*
X103838972Y-109372419D01*
X103838972Y-109372419D02*
X103743734Y-109324800D01*
X103743734Y-109324800D02*
X103696115Y-109277180D01*
X103696115Y-109277180D02*
X103648496Y-109181942D01*
X103648496Y-109181942D02*
X103648496Y-109086704D01*
X103648496Y-109086704D02*
X103696115Y-108991466D01*
X103696115Y-108991466D02*
X103743734Y-108943847D01*
X103743734Y-108943847D02*
X103838972Y-108896228D01*
X103838972Y-108896228D02*
X104029448Y-108848609D01*
X104029448Y-108848609D02*
X104124686Y-108800990D01*
X104124686Y-108800990D02*
X104172305Y-108753371D01*
X104172305Y-108753371D02*
X104219924Y-108658133D01*
X104219924Y-108658133D02*
X104219924Y-108562895D01*
X104219924Y-108562895D02*
X104172305Y-108467657D01*
X104172305Y-108467657D02*
X104124686Y-108420038D01*
X104124686Y-108420038D02*
X104029448Y-108372419D01*
X104029448Y-108372419D02*
X103791353Y-108372419D01*
X103791353Y-108372419D02*
X103648496Y-108420038D01*
X103219924Y-109372419D02*
X103219924Y-108705752D01*
X103219924Y-108800990D02*
X103172305Y-108753371D01*
X103172305Y-108753371D02*
X103077067Y-108705752D01*
X103077067Y-108705752D02*
X102934210Y-108705752D01*
X102934210Y-108705752D02*
X102838972Y-108753371D01*
X102838972Y-108753371D02*
X102791353Y-108848609D01*
X102791353Y-108848609D02*
X102791353Y-109372419D01*
X102791353Y-108848609D02*
X102743734Y-108753371D01*
X102743734Y-108753371D02*
X102648496Y-108705752D01*
X102648496Y-108705752D02*
X102505639Y-108705752D01*
X102505639Y-108705752D02*
X102410400Y-108753371D01*
X102410400Y-108753371D02*
X102362781Y-108848609D01*
X102362781Y-108848609D02*
X102362781Y-109372419D01*
X101886591Y-109372419D02*
X101886591Y-108705752D01*
X101886591Y-108372419D02*
X101934210Y-108420038D01*
X101934210Y-108420038D02*
X101886591Y-108467657D01*
X101886591Y-108467657D02*
X101838972Y-108420038D01*
X101838972Y-108420038D02*
X101886591Y-108372419D01*
X101886591Y-108372419D02*
X101886591Y-108467657D01*
X101267544Y-109372419D02*
X101362782Y-109324800D01*
X101362782Y-109324800D02*
X101410401Y-109229561D01*
X101410401Y-109229561D02*
X101410401Y-108372419D01*
X100505639Y-109324800D02*
X100600877Y-109372419D01*
X100600877Y-109372419D02*
X100791353Y-109372419D01*
X100791353Y-109372419D02*
X100886591Y-109324800D01*
X100886591Y-109324800D02*
X100934210Y-109229561D01*
X100934210Y-109229561D02*
X100934210Y-108848609D01*
X100934210Y-108848609D02*
X100886591Y-108753371D01*
X100886591Y-108753371D02*
X100791353Y-108705752D01*
X100791353Y-108705752D02*
X100600877Y-108705752D01*
X100600877Y-108705752D02*
X100505639Y-108753371D01*
X100505639Y-108753371D02*
X100458020Y-108848609D01*
X100458020Y-108848609D02*
X100458020Y-108943847D01*
X100458020Y-108943847D02*
X100934210Y-109039085D01*
M02*
